<svg width="24" height="24" viewBox="0 0 24 24" fill="none" xmlns="http://www.w3.org/2000/svg">
<path d="M12 10.5C13.6569 10.5 15 9.65685 15 8C15 6.34315 13.6569 5 12 5C10.3431 5 9 6.34315 9 8C9 9.65685 10.3431 10.5 12 10.5Z" stroke="white" stroke-width="2" stroke-linecap="round" stroke-linejoin="round"/>
<path d="M12 20C13.6569 20 15 17.7614 15 15C15 12.2386 13.6569 10.5 12 10.5C10.3431 10.5 9 12.2386 9 15C9 17.7614 10.3431 20 12 20Z" stroke="white" stroke-width="1.5" stroke-linecap="round" stroke-linejoin="round"/>
<path d="M15 10.3057C28.5 7.80566 19 21.8057 15 10.3057Z" stroke="white" stroke-width="2" stroke-linecap="round"/>
<path d="M8.99139 10.3057C-4.50861 7.80566 4.99139 21.8057 8.99139 10.3057Z" stroke="white" stroke-width="2" stroke-linecap="round"/>
<path d="M15 2C13.7434 2.32595 13.3045 2.98105 13 5" stroke="white" stroke-width="1.5" stroke-linecap="round"/>
<path d="M9 2C10.2566 2.32595 10.6955 2.98105 11 5" stroke="white" stroke-width="1.5" stroke-linecap="round"/>
<path d="M9 17C11.2867 17.8091 12.5981 17.8132 15 17" stroke="white" stroke-linecap="round"/>
<path d="M9 15C11.2867 15.8091 12.5981 15.8132 15 15" stroke="white" stroke-linecap="round"/>
<path d="M9 13C11.2867 13.8091 12.5981 13.8132 15 13" stroke="white" stroke-linecap="round"/>
<path d="M9 11C11.2867 11.8091 12.5981 11.8132 15 11" stroke="white" stroke-linecap="round"/>
</svg>
