<svg width="24" height="24" viewBox="0 0 24 24" fill="none" xmlns="http://www.w3.org/2000/svg">
    <path d="M16 19L15 17" stroke="white" stroke-width="2" stroke-linecap="round"/>
    <path d="M8 19L9 17" stroke="white" stroke-width="2" stroke-linecap="round"/>
    <path d="M6 13C6 12.4477 6.44772 12 7 12H17C17.5523 12 18 12.4477 18 13V18H6V13Z" fill="white"/>
    <path d="M16 18H18V19C18 19.5523 17.5523 20 17 20H16V18Z" fill="white"/>
    <path d="M6 18H8V20H7C6.44772 20 6 19.5523 6 19V18Z" fill="white"/>
    <path d="M9 11C9 10.4477 9.44772 10 10 10H14C14.5523 10 15 10.4477 15 11V12H9V11Z" fill="white"/>
    <rect x="15" y="4" width="6" height="6" rx="1" fill="white"/>
    <rect x="3" y="4" width="6" height="6" rx="1" fill="white"/>
</svg>
