<svg width="24" height="24" viewBox="0 0 24 24" fill="none" xmlns="http://www.w3.org/2000/svg">
    <path d="M12 6C13.2923 5.13846 14.5385 4.30769 15 4" stroke="white" stroke-width="2" stroke-linecap="round"/>
    <path d="M15 4C16.2923 4.86154 17.5385 5.69231 18 6" stroke="white" stroke-width="2" stroke-linecap="round"/>
    <path d="M18 6C18 7.29231 18 8.53846 18 9" stroke="white" stroke-width="2" stroke-linecap="round"/>
    <path d="M12 6C12 7.29231 12 8.53846 12 9" stroke="white" stroke-width="2" stroke-linecap="round"/>
    <path d="M18 9C16.7077 9.86154 15.4615 10.6923 15 11" stroke="white" stroke-width="2" stroke-linecap="round"/>
    <path d="M12 9C13.2923 9.86154 14.5385 10.6923 15 11" stroke="white" stroke-width="2" stroke-linecap="round"/>
    <path d="M12 16C13.2923 15.1385 14.5385 14.3077 15 14" stroke="white" stroke-width="2" stroke-linecap="round"/>
    <path d="M15 14C16.2923 14.8615 17.5385 15.6923 18 16" stroke="white" stroke-width="2" stroke-linecap="round"/>
    <path d="M18 16C18 17.2923 18 18.5385 18 19" stroke="white" stroke-width="2" stroke-linecap="round"/>
    <path d="M12 16C12 17.2923 12 18.5385 12 19" stroke="white" stroke-width="2" stroke-linecap="round"/>
    <path d="M18 19C16.7077 19.8615 15.4615 20.6923 15 21" stroke="white" stroke-width="2" stroke-linecap="round"/>
    <path d="M12 19C13.2923 19.8615 14.5385 20.6923 15 21" stroke="white" stroke-width="2" stroke-linecap="round"/>
    <path d="M18 9C19.2923 9.86154 20.5385 10.6923 21 11" stroke="white" stroke-width="2" stroke-linecap="round"/>
    <path d="M21 11C21 12.2923 21 13.5385 21 14" stroke="white" stroke-width="2" stroke-linecap="round"/>
    <path d="M15 11C15 12.2923 15 13.5385 15 14" stroke="white" stroke-width="2" stroke-linecap="round"/>
    <path d="M21 14C19.7077 14.8615 18.4615 15.6923 18 16" stroke="white" stroke-width="2" stroke-linecap="round"/>
    <path d="M6 6C7.29231 5.13846 8.53846 4.30769 9 4" stroke="white" stroke-width="2" stroke-linecap="round"/>
    <path d="M9 4C10.2923 4.86154 11.5385 5.69231 12 6" stroke="white" stroke-width="2" stroke-linecap="round"/>
    <path d="M6 6C6 7.29231 6 8.53846 6 9" stroke="white" stroke-width="2" stroke-linecap="round"/>
    <path d="M12 9C10.7077 9.86154 9.46154 10.6923 9 11" stroke="white" stroke-width="2" stroke-linecap="round"/>
    <path d="M6 9C7.29231 9.86154 8.53846 10.6923 9 11" stroke="white" stroke-width="2" stroke-linecap="round"/>
    <path d="M3 11C4.29231 10.1385 5.53846 9.30769 6 9" stroke="white" stroke-width="2" stroke-linecap="round"/>
    <path d="M9 11C9 12.2923 9 13.5385 9 14" stroke="white" stroke-width="2" stroke-linecap="round"/>
    <path d="M3 11C3 12.2923 3 13.5385 3 14" stroke="white" stroke-width="2" stroke-linecap="round"/>
    <path d="M9 14C7.70769 14.8615 6.46154 15.6923 6 16" stroke="white" stroke-width="2" stroke-linecap="round"/>
    <path d="M3 14C4.29231 14.8615 5.53846 15.6923 6 16" stroke="white" stroke-width="2" stroke-linecap="round"/>
    <path d="M9 14C10.2923 14.8615 11.5385 15.6923 12 16" stroke="white" stroke-width="2" stroke-linecap="round"/>
    <path d="M6 16C6 17.2923 6 18.5385 6 19" stroke="white" stroke-width="2" stroke-linecap="round"/>
    <path d="M12 19C10.7077 19.8615 9.46154 20.6923 9 21" stroke="white" stroke-width="2" stroke-linecap="round"/>
    <path d="M6 19C7.29231 19.8615 8.53846 20.6923 9 21" stroke="white" stroke-width="2" stroke-linecap="round"/>
</svg>
