<svg width="24" height="24" viewBox="0 0 24 24" fill="none" xmlns="http://www.w3.org/2000/svg">
<path d="M12 19C15.866 19 19 15.866 19 12C19 8.13401 15.866 5 12 5C8.13401 5 5 8.13401 5 12C5 15.866 8.13401 19 12 19Z" stroke="white" stroke-width="2" stroke-linecap="round" stroke-linejoin="round"/>
<path fill-rule="evenodd" clip-rule="evenodd" d="M16.9961 7.36824C18.7194 6.3835 19.9551 5.83277 20.793 5.58348C21.0784 5.49855 21.2962 5.45524 21.4565 5.43684C21.4436 5.47406 21.4283 5.51501 21.41 5.55981C21.2222 6.02012 20.8242 6.64888 20.2318 7.35981C17.7702 10.3137 15.728 12.222 13.3605 13.6425C10.9857 15.0674 8.22216 16.0387 4.25746 17.0299C3.75568 17.1553 3.1613 17.2949 2.64532 17.3492C2.54974 17.3593 2.46299 17.3657 2.38511 17.3689C2.42261 17.3024 2.46848 17.2266 2.52447 17.141C2.98669 16.4341 3.94416 15.3451 5.68046 13.7328L4.31956 12.2672C2.55585 13.9049 1.45082 15.1284 0.850535 16.0465C0.553852 16.5002 0.329393 16.9549 0.252736 17.4009C0.168818 17.8892 0.260261 18.4245 0.667897 18.8321C1.02096 19.1852 1.47634 19.3002 1.80356 19.3431C2.15153 19.3887 2.51989 19.3735 2.85469 19.3383C3.52621 19.2676 4.24433 19.0947 4.74253 18.9701C8.77783 17.9613 11.7643 16.9326 14.3895 15.3575C17.022 13.778 19.2298 11.6863 21.7682 8.64018C22.4258 7.85112 22.9653 7.04237 23.2619 6.31518C23.4091 5.95432 23.5223 5.55181 23.5205 5.14796C23.5186 4.72485 23.3852 4.24057 22.9769 3.87759C22.5902 3.53385 22.1036 3.43152 21.6723 3.42587C21.2358 3.42014 20.7477 3.51031 20.2226 3.66652C19.1699 3.97973 17.7806 4.6165 16.0039 5.63176L16.9961 7.36824ZM21.7493 5.43524L21.7459 5.4343C21.7483 5.43485 21.7494 5.4352 21.7493 5.43524ZM1.97574 17.3421C1.9758 17.3421 1.97737 17.3426 1.98025 17.3438C1.97711 17.3428 1.97567 17.3422 1.97574 17.3421Z" fill="white"/>
</svg>
